<?xml version="1.0" encoding="UTF-8"?><svg id="Capa_1" xmlns="http://www.w3.org/2000/svg" xmlns:xlink="http://www.w3.org/1999/xlink" viewBox="0 0 1012.96 915.1"><defs><style>.cls-1{fill:url(#Degradado_sin_nombre_1018-4);}.cls-2{fill:#12122a;}.cls-3{fill:url(#Degradado_sin_nombre_118);}.cls-4{fill:url(#Degradado_sin_nombre_118-2);}.cls-5{fill:url(#Degradado_sin_nombre_1018-6);}.cls-6{fill:url(#Degradado_sin_nombre_1018-5);}.cls-7{opacity:.08;stroke:url(#Degradado_sin_nombre_1018);stroke-width:20px;}.cls-7,.cls-8{fill:none;stroke-miterlimit:10;}.cls-8{stroke:url(#Degradado_sin_nombre_1018-2);stroke-width:5px;}.cls-9{fill:url(#Degradado_sin_nombre_1018-3);}</style><radialGradient id="Degradado_sin_nombre_118" cx="489.22" cy="357.26" fx="489.22" fy="357.26" r="345.53" gradientUnits="userSpaceOnUse"><stop offset=".28" stop-color="#164d62"/><stop offset=".69" stop-color="#15455a" stop-opacity=".4"/><stop offset="1" stop-color="#12172e" stop-opacity="0"/></radialGradient><radialGradient id="Degradado_sin_nombre_118-2" cx="1302.58" cy="774.26" fx="1302.58" fy="774.26" r="142.68" gradientTransform="translate(-4007.37) scale(3.47 1)" xlink:href="#Degradado_sin_nombre_118"/><linearGradient id="Degradado_sin_nombre_1018" x1="112.96" y1="378.5" x2="869.96" y2="378.5" gradientUnits="userSpaceOnUse"><stop offset=".09" stop-color="#2786aa"/><stop offset=".38" stop-color="#24a7aa"/><stop offset=".85" stop-color="#04d6a1"/></linearGradient><linearGradient id="Degradado_sin_nombre_1018-2" x1="62.46" y1="633.5" x2="308.46" y2="633.5" xlink:href="#Degradado_sin_nombre_1018"/><linearGradient id="Degradado_sin_nombre_1018-3" x1="157.16" y1="792.77" x2="859.16" y2="792.77" xlink:href="#Degradado_sin_nombre_1018"/><linearGradient id="Degradado_sin_nombre_1018-4" x1="157.16" y1="751.29" x2="859.16" y2="751.29" xlink:href="#Degradado_sin_nombre_1018"/><linearGradient id="Degradado_sin_nombre_1018-5" x1="232.16" y1="700.81" x2="795.16" y2="700.81" xlink:href="#Degradado_sin_nombre_1018"/><linearGradient id="Degradado_sin_nombre_1018-6" x1="232.16" y1="679.31" x2="792.16" y2="679.31" xlink:href="#Degradado_sin_nombre_1018"/></defs><ellipse class="cls-3" cx="489.22" cy="357.26" rx="349.91" ry="341.09"/><ellipse class="cls-4" cx="511.67" cy="774.26" rx="501.29" ry="140.85"/><circle class="cls-7" cx="491.46" cy="378.5" r="368.5"/><circle class="cls-8" cx="185.46" cy="633.5" r="120.5"/><ellipse class="cls-2" cx="202.46" cy="765.5" rx="13.5" ry="15.5"/><g><g><ellipse class="cls-9" cx="508.16" cy="792.77" rx="351" ry="45.03"/><polygon class="cls-1" points="859.16 792.77 157.16 792.77 196.16 709.81 824.16 709.81 859.16 792.77"/><ellipse class="cls-2" cx="510.66" cy="712.41" rx="315.5" ry="45.03"/></g><g><ellipse class="cls-6" cx="513.66" cy="700.81" rx="281.5" ry="22"/><polygon class="cls-5" points="792.16 698.81 232.16 699.81 280.16 659.81 709.16 658.81 792.16 698.81"/><ellipse class="cls-2" cx="495.16" cy="660.81" rx="216" ry="22"/></g><ellipse class="cls-2" cx="196.66" cy="772.31" rx="13.5" ry="15.5"/><ellipse class="cls-2" cx="253.66" cy="783.31" rx="13.5" ry="15.5"/><ellipse class="cls-2" cx="309.66" cy="790.31" rx="13.5" ry="15.5"/><ellipse class="cls-2" cx="273.66" cy="692.34" rx="6.5" ry="7.46"/><ellipse class="cls-2" cx="299.66" cy="696.34" rx="6.5" ry="7.46"/><ellipse class="cls-2" cx="323.66" cy="700.34" rx="6.5" ry="7.46"/><ellipse class="cls-2" cx="814.66" cy="773.31" rx="13.5" ry="15.5"/><ellipse class="cls-2" cx="763.66" cy="782.31" rx="13.5" ry="15.5"/><ellipse class="cls-2" cx="707.66" cy="789.31" rx="13.5" ry="15.5"/><ellipse class="cls-2" cx="716.63" cy="692.45" rx="6.5" ry="7.46"/><ellipse class="cls-2" cx="655.63" cy="699.45" rx="6.5" ry="7.46"/><ellipse class="cls-2" cx="683.63" cy="696.45" rx="6.5" ry="7.46"/></g></svg>