<?xml version="1.0" encoding="UTF-8"?><svg id="Capa_1" xmlns="http://www.w3.org/2000/svg" viewBox="0 0 440.57 40.39"><defs><style>.cls-1{fill:#fff;}.cls-2{fill:#51b05e;}</style></defs><path class="cls-2" d="M0,40.21V17.06H59.46c3.1,0,5.74-2.41,5.74-5.34s-2.64-5.28-5.74-5.28H0V.12H59.4c6.55,0,12.12,4.83,12.12,11.49s-5.46,11.66-12.12,11.66H6.55v16.95H0Z"/><path class="cls-1" d="M76.69,40.33V.12h6.61V40.33h-6.61Z"/><path class="cls-1" d="M98.64,.17l1.09,.69c1.95,1.32,6.49,4.42,11.09,7.41l12.12,8.16L147.12,.12h11.32l.23,.06c-9.19,6.2-10.57,7.12-29.93,20.05,19.59,13.1,21.14,14.42,29.87,20.16h-11.32c-8.73-5.8-11.66-7.81-24.24-16.26-.92,.63-11.43,7.64-18.33,12.24l-6.03,4.02h-11.32c14.99-10.11,17.64-11.89,19.01-12.81l.98-.63c.98-.69,2.76-1.9,9.88-6.72C97.89,7.3,96.51,6.38,87.32,.17h11.32Z"/><g><rect class="cls-1" x="162.69" y="17.06" width="49.32" height="6.2"/><rect class="cls-2" x="224.17" y="17.06" width="6.77" height="6.2"/><rect class="cls-2" x="162.69" y="0" width="6.76" height="6.32"/><rect class="cls-1" x="181.62" y="34.01" width="52.77" height="6.32"/><rect class="cls-2" x="162.69" y="34.01" width="6.76" height="6.32"/><polygon class="cls-1" points="181.62 .02 181.62 6.32 234.39 6.32 234.39 .06 181.62 .02"/></g><path class="cls-1" d="M299.76,34.07v6.26h-58.48V.12h6.55V34.07h51.93Z"/><path class="cls-1" d="M304.36,40.27V17.06h55.44c2.99,0,5.63-2.36,5.63-5.34,0-2.81-2.36-5.34-5.63-5.34h-55.44V.06h55.44c4.6,0,8.33,2.36,10.4,5.69,1.03,1.67,1.61,3.1,1.67,4.19,.06,1.09,.12,1.78,.12,2.01,0,1.72-.46,3.45-1.44,5.11l-.8,1.49c3.5,1.84,5.51,5.11,5.92,7.35,.17,1.15,.29,2.01,.29,2.7,0,1.9-.46,4.65-2.53,7.24-2.07,2.58-5.34,4.42-9.65,4.42h-59.4Zm6.55-16.89v10.68h52.85c3.1,0,5.63-2.47,5.63-5.4s-2.53-5.28-5.63-5.28h-52.85Z"/><path class="cls-1" d="M369.28,.12h11.49l24.19,16.31L429.31,.12h11.26l-32.28,21.77v18.44h-6.55V21.89L369.28,.12Z"/></svg>